<?xml version="1.0" encoding="UTF-8" standalone="no"?>
<!DOCTYPE svg PUBLIC "-//W3C//DTD SVG 20010904//EN" "http://www.w3.org/TR/2001/REC-SVG-20010904/DTD/svg10.dtd">
<svg version="1.0" xmlns="http://www.w3.org/2000/svg" width="1000.000000pt" height="1000.000000pt" viewBox="0 0 1000.000000 1000.000000" preserveAspectRatio="xMidYMid meet">

<g transform="translate(0.000000,1000.000000) scale(0.100000,-0.100000)" stroke="none">
<path d="M7640 9955 c-119 -34 -341 -96 -1460 -405 -360 -100 -776 -215 -924 -256 -148 -41 -308 -86 -355 -98 -102 -28 -625 -173 -796 -221 -66 -18 -212 -59 -325 -90 -113 -31 -243 -67 -290 -80 -47 -13 -193 -54 -325 -90 -132 -36 -278 -77 -325 -90 -47 -13 -231 -64 -410 -114 -179 -49 -472 -131 -651 -180 -179 -50 -332 -91 -340 -91 -9 0 -26 -35 -47 -95 -31 -86 -33 -99 -23 -142 52 -239 120 -536 123 -538 2 -1 91 22 198 51 107 30 341 95 520 144 179 49 433 119 565 155 132 37 377 104 545 150 168 46 438 120 600 165 536 148 983 271 1090 300 58 16 263 72 455 125 193 53 487 134 655 180 168 46 519 143 780 215 261 72 584 160 716 197 l241 66 22 128 21 127 -56 249 c-31 136 -57 254 -60 261 -5 16 -11 15 -144 -23z"/>
<path d="M7890 9155 c-41 -13 -124 -37 -185 -53 -60 -17 -308 -85 -550 -152 -242 -66 -478 -132 -525 -145 -104 -29 -388 -108 -1085 -300 -485 -134 -768 -212 -1410 -390 -126 -35 -468 -130 -760 -210 -291 -80 -674 -186 -850 -235 -421 -117 -823 -227 -857 -234 -22 -5 -29 -15 -38 -49 -6 -23 -22 -76 -36 -117 -23 -70 -23 -75 -7 -85 10 -5 108 -44 218 -86 110 -42 234 -91 275 -107 66 -28 247 -97 778 -298 l153 -57 62 15 c34 8 154 41 267 72 580 162 717 199 734 200 16 1 25 -22 62 -174 76 -310 108 -450 103 -455 -3 -2 -68 15 -144 40 -359 112 -704 215 -740 220 -33 5 -48 0 -85 -23 l-46 -29 -102 -354 c-56 -195 -102 -360 -102 -366 0 -7 5 -13 11 -13 15 0 1430 -438 1448 -448 12 -7 265 -991 257 -1000 -2 -1 -55 13 -117 32 -296 89 -737 226 -761 235 -22 8 -36 5 -82 -20 -31 -17 -58 -34 -60 -38 -7 -10 -196 -723 -196 -737 0 -5 87 -36 193 -68 105 -32 233 -71 282 -86 50 -16 187 -58 305 -94 557 -169 673 -205 680 -213 6 -6 382 -1501 404 -1608 l7 -31 -143 -32 c-79 -18 -175 -39 -214 -48 l-70 -15 -149 -287 c-82 -158 -175 -336 -207 -396 -56 -107 -104 -251 -94 -285 3 -9 23 -101 45 -206 60 -289 88 -416 92 -419 3 -3 663 179 1514 418 50 14 432 120 850 236 418 116 798 222 845 235 161 46 701 195 705 195 2 0 9 17 14 38 6 20 22 79 36 130 l27 92 -30 98 c-17 53 -40 132 -53 175 -22 77 -22 78 -51 72 l-29 -7 3 104 3 103 -345 228 -344 229 -268 -78 c-148 -42 -270 -75 -272 -73 -7 7 -118 470 -114 474 2 3 114 -29 249 -70 134 -41 252 -75 262 -75 10 0 38 14 63 31 35 26 46 42 58 83 8 28 54 188 101 355 48 167 89 309 91 316 3 8 -26 21 -88 39 -51 14 -293 88 -538 164 l-445 137 -124 493 c-68 271 -121 495 -119 497 2 2 115 -30 250 -72 l247 -77 53 37 c47 33 55 44 69 95 29 101 168 575 183 624 l14 47 -97 30 c-53 16 -289 89 -526 161 -236 73 -431 133 -432 133 -2 2 -181 708 -338 1335 -64 255 -114 469 -112 475 2 7 26 18 53 25 59 15 443 121 750 206 l222 61 154 195 c85 107 281 357 437 555 156 198 300 380 319 404 29 35 41 66 67 172 36 148 42 140 -75 104z"/>
</g>
</svg>